<svg width="288" height="60" viewBox="0 0 288 60" fill="none" xmlns="http://www.w3.org/2000/svg">
<g clip-path="url(#clip0_0_3)">
<path d="M72.4222 19.9181L72.4218 19.9284V19.9388V34.2334H67.1168V21.3102C67.1819 19.6943 66.6654 18.1086 65.662 16.8501L65.6621 16.85L65.6534 16.8397C65.1724 16.2685 64.5693 15.8155 63.8893 15.5155L63.8893 15.5155C63.2127 15.2171 62.4782 15.078 61.7407 15.1091C59.645 15.1117 58.0078 15.8661 56.9172 17.4122C55.8471 18.929 55.3504 21.1424 55.3504 23.9743V34.2334H50.0117V10.945H55.3504V12.6406V13.8379L56.2019 12.9962C57.1462 12.0627 58.2674 11.3354 59.4966 10.8582L59.4967 10.8582C60.726 10.3809 62.0379 10.1637 63.3522 10.2195L63.3728 10.2204L63.3934 10.2196C64.6069 10.1709 65.8168 10.3852 66.9431 10.8485C68.0674 11.311 69.083 12.0112 69.9222 12.9033C71.6301 14.8146 72.5292 17.335 72.4222 19.9181Z" fill="white" stroke="black"/>
<path d="M86.7873 34.2329H81.4688V0.5H86.7873V34.2329Z" fill="white" stroke="black"/>
<path d="M112.118 20.2524L107.016 34.2328H102.427L93.929 10.8965H99.5875L104.497 25.115L104.965 26.469L105.442 25.1181L110.459 10.8965H114.676L119.692 25.1654L120.171 26.5276L120.637 25.161L125.502 10.8965H131.159L122.654 34.2328H118.106L113.058 20.254L112.59 18.9585L112.118 20.2524Z" fill="white" stroke="black"/>
<path d="M37.1282 35.3486L27.9028 41.6071L7.16406 30.3418L16.2549 24.1859L26.0456 29.5073C26.0456 27.3801 26.0456 22.2023 26.0456 17.5512L37.1147 10.0273C37.1147 14.6511 37.1147 26.1284 37.1282 35.3486Z" fill="#8257E5"/>
<path d="M20.1869 21.5788L10.0935 16.1069C10.0935 18.2888 10.0935 23.6991 10.0935 28.4187C5.86766 31.2983 2.08598 33.8564 0 35.2585C0 30.5732 0 18.8428 0 9.57478L8.91589 3.52148L29.9641 14.9578L20.1869 21.5788Z" fill="#8257E5"/>
<path fill-rule="evenodd" clip-rule="evenodd" d="M190.974 25.6207V2.58398H196.6V11.0039H208.665V16.1954H196.6V25.6207C196.6 28.7944 198.208 30.0393 200.53 30.0393C202.851 30.0393 204.453 28.8423 204.453 25.6207V24.9914H210.085V25.6207C210.085 32.2075 206.202 35.3812 200.53 35.3812C194.857 35.3812 190.974 32.2075 190.974 25.6207ZM149.914 10.3746C143.818 10.3746 139.652 13.7877 139.652 20.9559L139.666 34.7519H145.291V20.9627C145.291 17.0914 147.182 15.7234 149.927 15.7234C152.673 15.7234 154.564 17.1119 154.564 20.9627V21.2021H160.149V21.0517C160.149 13.7877 156.01 10.3746 149.914 10.3746ZM174.798 10.3746C167.417 10.3746 162.215 15.6618 162.215 22.8779C162.215 30.094 167.417 35.3812 174.798 35.3812C180.33 35.3812 184.589 32.4469 186.339 27.9257H180.33C179.145 29.4647 177.302 30.1829 174.798 30.1829C171.494 30.1829 168.884 28.3567 168.13 24.8957H187.287V22.8779C187.287 15.6618 182.18 10.3746 174.798 10.3746ZM174.798 15.5387C177.874 15.5387 180.424 17.1529 181.326 20.3266H168.271C169.166 17.1734 171.723 15.5387 174.798 15.5387ZM213.677 11.0047V23.3575C213.677 31.3397 218.313 35.382 225.217 35.382C232.121 35.382 236.757 31.2918 236.757 23.3575V11.0047H231.132V23.3575C231.132 27.8787 228.763 30.0401 225.217 30.0401C221.671 30.0401 219.302 27.8787 219.302 23.3575V11.0047H213.677ZM241.394 20.9559C241.394 13.7877 245.559 10.3746 251.656 10.3746C257.752 10.3746 261.877 13.7945 261.877 21.0517V21.2021H256.292V20.9627C256.292 17.0982 254.401 15.7302 251.663 15.7302C248.924 15.7302 247.026 17.0982 247.026 20.9696V34.7519H241.401L241.394 20.9559ZM276.446 10.3746C269.535 10.3746 264.899 14.4649 264.899 22.3991L264.872 34.7519H270.504V22.3991C270.504 17.878 272.913 15.7166 276.459 15.7166C280.006 15.7166 282.368 17.878 282.368 22.3991V34.7518H282.362V38.5479C282.368 39.602 282.169 40.647 281.777 41.623C281.385 42.5989 280.808 43.4866 280.078 44.2352C279.347 44.9837 278.479 45.5784 277.522 45.9851C276.566 46.3918 275.539 46.6026 274.502 46.6053H255.9L260.088 42.3437L256.509 38.7049L247.828 47.5283V51.174L256.509 59.9974L260.088 56.3518L256.068 52.2687H274.482C278.064 52.2705 281.501 50.8262 284.036 48.2532C286.571 45.6803 287.997 42.1893 288.001 38.5479V34.7518H288V22.3991C288 14.417 283.357 10.3746 276.446 10.3746Z" fill="url(#paint0_linear_0_3)"/>
</g>
<defs>
<linearGradient id="paint0_linear_0_3" x1="143.952" y1="49.3479" x2="284.448" y2="49.3479" gradientUnits="userSpaceOnUse">
<stop stop-color="#8257E5"/>
<stop offset="0.53" stop-color="#D72891"/>
<stop offset="1" stop-color="#F1594B"/>
</linearGradient>
<clipPath id="clip0_0_3">
<rect width="288" height="60" fill="white"/>
</clipPath>
</defs>
</svg>
